<svg xmlns="http://www.w3.org/2000/svg" width="20" height="20" viewBox="0 0 20 20">
    <g fill="none" fill-rule="evenodd">
        <g fill="#F0F0F0">
            <g>
                <g>
                    <g>
                        <path d="M11.363 3.518l5.893 5.893c.325.325.325.853 0 1.178l-5.893 5.893c-.325.325-.853.325-1.179 0-.325-.326-.325-.853 0-1.179l4.47-4.47H3.334c-.46 0-.834-.373-.834-.833 0-.46.373-.834.833-.834h11.32l-4.469-4.47c-.325-.325-.325-.853 0-1.178.326-.325.854-.325 1.179 0z" transform="translate(-68 -873) translate(44 857) translate(16 8) translate(8 8) rotate(180 10 10)"/>
                    </g>
                </g>
            </g>
        </g>
    </g>
</svg>
