<svg xmlns="http://www.w3.org/2000/svg" width="158" height="36" viewBox="0 0 158 36">
    <g fill="none" fill-rule="evenodd">
        <g>
            <g>
                <g>
                    <path d="M0 0H158V36H0z" transform="translate(-72 -81) translate(40 67) translate(32 14)"/>
                    <path fill="#FAFAFA" d="M18 6c6.627 0 12 5.373 12 12s-5.373 12-12 12S6 24.627 6 18 11.373 6 18 6zm36.304 4.97c4.171 0 6.811 2.873 6.811 7.474v.02c0 4.601-2.63 7.485-6.811 7.485-4.21 0-6.821-2.884-6.821-7.485v-.02c0-4.61 2.65-7.474 6.821-7.474zm12.572.365v9.064c0 1.847 1.07 3.022 2.974 3.022 1.904 0 2.964-1.175 2.964-3.022v-9.064h2.964v9.331c0 3.16-2.277 5.283-5.928 5.283-3.631 0-5.938-2.113-5.938-5.283v-9.331h2.964zm49.22-.365c4.171 0 6.812 2.873 6.812 7.474v.02c0 4.601-2.63 7.485-6.812 7.485-4.21 0-6.82-2.884-6.82-7.485v-.02c0-4.61 2.65-7.474 6.82-7.474zm15.713 0c3.347 0 5.79 1.935 6.213 4.779l.02.098h-2.945l-.02-.098c-.402-1.412-1.609-2.252-3.268-2.252-2.286 0-3.7 1.876-3.7 4.908v.02c0 3.09 1.482 4.996 3.818 4.996 1.943 0 3.278-1.195 3.337-2.992l.01-.267h-3.062V17.99h5.947v1.807c0 3.782-2.414 6.152-6.281 6.152-4.21 0-6.792-2.854-6.792-7.495v-.02c0-4.571 2.601-7.464 6.723-7.464zm15.38 0c4.17 0 6.811 2.873 6.811 7.474v.02c0 4.601-2.63 7.485-6.811 7.485-4.21 0-6.821-2.884-6.821-7.485v-.02c0-4.61 2.65-7.474 6.82-7.474zm-110.276.365l3.12 5.994h.177l3.112-5.994h3.209l-4.937 8.926v5.322H38.63v-5.322l-4.927-8.926h3.21zm48.189 0c3.22 0 5.064 1.728 5.064 4.532v.02c0 1.827-.942 3.397-2.561 4.038l2.983 5.658h-3.356l-2.64-5.213h-2.425v5.213h-2.964V11.335h5.899zm16.204 0v11.79h6.3v2.458h-9.264V11.335h2.964zm-47.002 2.162c-2.306 0-3.798 1.926-3.798 4.947v.02c0 3.012 1.462 4.957 3.798 4.957 2.306 0 3.788-1.945 3.788-4.957v-.02c0-3.021-1.491-4.947-3.788-4.947zm61.792 0c-2.306 0-3.798 1.926-3.798 4.947v.02c0 3.012 1.462 4.957 3.798 4.957 2.307 0 3.789-1.945 3.789-4.957v-.02c0-3.021-1.492-4.947-3.789-4.947zm31.093 0c-2.307 0-3.799 1.926-3.799 4.947v.02c0 3.012 1.463 4.957 3.799 4.957 2.306 0 3.788-1.945 3.788-4.957v-.02c0-3.021-1.492-4.947-3.788-4.947zm-62.45.168h-2.572v4.532h2.611c1.482 0 2.356-.849 2.356-2.25v-.02c0-1.373-.913-2.262-2.395-2.262z" transform="translate(-72 -81) translate(40 67) translate(32 14)"/>
                </g>
            </g>
        </g>
    </g>
</svg>
