<svg xmlns="http://www.w3.org/2000/svg" width="20" height="20" viewBox="0 0 20 20">
    <g fill="none" fill-rule="evenodd">
        <g fill="#F0F0F0">
            <g>
                <path d="M10.14 3.957c3.308 0 6.053 2.74 6.053 6.048 0 3.302-2.739 6.048-6.047 6.048-3.303 0-6.048-2.746-6.048-6.048 0-3.309 2.74-6.048 6.042-6.048zm2.099 3.475c-.13 0-.237.047-.338.148L10.14 9.323 8.397 7.586c-.09-.095-.202-.143-.344-.143-.267 0-.486.214-.486.487 0 .13.053.249.142.344l1.737 1.737-1.737 1.737c-.09.095-.142.213-.142.344 0 .273.219.498.486.498.142 0 .267-.053.361-.148l1.726-1.737 1.737 1.737c.095.089.213.148.35.148.273 0 .492-.225.492-.498 0-.136-.047-.25-.142-.35l-1.738-1.731 1.744-1.743c.1-.107.142-.214.142-.35 0-.267-.22-.486-.486-.486z" transform="translate(-1291 -22) translate(1121 14) translate(170 8)"/>
            </g>
        </g>
    </g>
</svg>
