<svg xmlns="http://www.w3.org/2000/svg" width="24" height="24" viewBox="0 0 24 24">
    <g fill="none" fill-rule="evenodd">
        <g fill="#FAFAFA">
            <g>
                <g>
                    <path d="M12 1c6.075 0 11 4.925 11 11s-4.925 11-11 11S1 18.075 1 12 5.925 1 12 1zm0 18c-1.683 0-3.004.37-4.015 1.056C9.194 20.66 10.557 21 12 21c1.443 0 2.806-.34 4.015-.943C15.004 19.37 13.683 19 12 19zm0-16c-4.97 0-9 4.03-9 9 0 2.769 1.25 5.246 3.217 6.897C7.65 17.66 9.582 17 12 17s4.35.66 5.783 1.896C19.75 17.246 21 14.769 21 12c0-4.97-4.03-9-9-9zm0 1.5c3.58 0 5.37 2.393 4.936 5.793C16.558 13.261 14.458 15.5 12 15.5c-2.458 0-4.558-2.24-4.936-5.207C6.63 6.893 8.42 4.5 12 4.5zm0 2c-2.295 0-3.242 1.267-2.953 3.54.26 2.04 1.592 3.46 2.953 3.46 1.36 0 2.692-1.42 2.953-3.46.29-2.273-.658-3.54-2.953-3.54z" transform="translate(-80 -247) translate(60 227) translate(20 20)"/>
                </g>
            </g>
        </g>
    </g>
</svg>
