<svg xmlns="http://www.w3.org/2000/svg" width="40" height="41" viewBox="0 0 40 41">
    <g fill="none" fill-rule="evenodd">
        <g>
            <g>
                <g>
                    <g>
                        <g transform="translate(-928 -612) translate(60 517) translate(0 48) translate(768) translate(100 47.5)">
                            <circle cx="20" cy="20" r="18.75" fill="#343434" fill-opacity=".5"/>
                            <path fill="#F0F0F0" fill-rule="nonzero" d="M37.738 19.862c0-9.872-8.003-17.876-17.876-17.876-9.872 0-17.876 8.004-17.876 17.876 0 9.873 8.004 17.876 17.876 17.876 9.873 0 17.876-8.003 17.876-17.876zM19.862 39.724C8.892 39.724 0 30.832 0 19.862 0 8.892 8.893 0 19.862 0c10.97 0 19.862 8.893 19.862 19.862 0 10.97-8.892 19.862-19.862 19.862z"/>
                            <path fill="#F0F0F0" d="M15.89 12.91L15.89 26.954 26.924 19.932 15.89 12.91"/>
                        </g>
                    </g>
                </g>
            </g>
        </g>
    </g>
</svg>
