<svg xmlns="http://www.w3.org/2000/svg" width="24" height="24" viewBox="0 0 24 24">
    <g fill="none" fill-rule="evenodd">
        <g fill="#0F0F0F">
            <g>
                <g>
                    <path d="M3.5 17.5c.828 0 1.5.672 1.5 1.5s-.672 1.5-1.5 1.5S2 19.828 2 19s.672-1.5 1.5-1.5zM20 18c.552 0 1 .448 1 1s-.448 1-1 1H8c-.552 0-1-.448-1-1s.448-1 1-1h12zM3.5 10.5c.828 0 1.5.672 1.5 1.5s-.672 1.5-1.5 1.5S2 12.828 2 12s.672-1.5 1.5-1.5zM20 11c.552 0 1 .448 1 1s-.448 1-1 1H8c-.552 0-1-.448-1-1s.448-1 1-1h12zM3.5 3.5C4.328 3.5 5 4.172 5 5s-.672 1.5-1.5 1.5S2 5.828 2 5s.672-1.5 1.5-1.5zM20 4c.552 0 1 .448 1 1s-.448 1-1 1H8c-.552 0-1-.448-1-1s.448-1 1-1h12z" transform="translate(-526 -247) translate(506 227) translate(20 20)"/>
                </g>
            </g>
        </g>
    </g>
</svg>
