<svg xmlns="http://www.w3.org/2000/svg" width="20" height="20" viewBox="0 0 20 20">
    <g fill="none" fill-rule="evenodd">
        <g fill="#F0F0F0">
            <g>
                <g>
                    <path d="M10 13.75c2.632 0 4.665 1 6.076 2.823.281.364.215.888-.15 1.17-.363.281-.887.214-1.168-.15-1.096-1.415-2.643-2.176-4.758-2.176s-3.662.76-4.758 2.176c-.281.364-.805.431-1.169.15-.364-.282-.43-.806-.149-1.17C5.334 14.75 7.368 13.75 10 13.75zm0-11.667c3.591 0 5.374 2.33 4.935 5.695-.383 2.938-2.494 5.139-4.935 5.139-2.441 0-4.552-2.201-4.935-5.14C4.626 4.415 6.409 2.084 10 2.084zm0 1.667c-2.529 0-3.598 1.397-3.283 3.812C7 9.724 8.463 11.25 10 11.25s3-1.526 3.283-3.688C13.598 5.147 12.529 3.75 10 3.75z" transform="translate(-1352 -22) translate(1344 14) translate(8 8)"/>
                </g>
            </g>
        </g>
    </g>
</svg>
