<svg xmlns="http://www.w3.org/2000/svg" width="20" height="20" viewBox="0 0 20 20">
    <g fill="none" fill-rule="evenodd">
        <g fill="#0F0F0F">
            <g>
                <g>
                    <path d="M11.25 1.667c3.912 0 7.083 3.171 7.083 7.083 0 3.912-3.171 7.083-7.083 7.083-1.655 0-3.178-.567-4.384-1.519l-3.432 3.431c-.325.325-.853.325-1.178 0-.326-.325-.326-.853 0-1.179l3.431-3.43c-.952-1.207-1.52-2.73-1.52-4.386 0-3.912 3.171-7.083 7.083-7.083zm0 1.666c-2.992 0-5.417 2.425-5.417 5.417s2.425 5.417 5.417 5.417 5.417-2.425 5.417-5.417-2.425-5.417-5.417-5.417z" transform="translate(-1129 -22) translate(1121 14) translate(8 8)"/>
                </g>
            </g>
        </g>
    </g>
</svg>
