<svg xmlns="http://www.w3.org/2000/svg" width="16" height="16" viewBox="0 0 16 16">
    <g fill="none" fill-rule="evenodd">
        <g fill="#FFF">
            <g>
                <g>
                    <path d="M8 1c2.059 0 3.025.93 3.27 2.666h.489c1.049 0 1.92.812 1.994 1.858l.477 6.667c.078 1.102-.751 2.059-1.853 2.137-.047.004-.095.005-.142.005h-8.47c-1.104 0-2-.895-2-2 0-.047.002-.095.005-.142l.477-6.667c.074-1.046.945-1.857 1.994-1.857h.49C4.975 1.93 5.94 1 8 1zm3.759 4l-.426-.001v.668c0 .368-.298.666-.666.666-.352 0-.64-.272-.665-.617L10 5.666V5H6v.668c0 .368-.298.666-.667.666-.351 0-.64-.272-.665-.617l-.001-.05V5L4.24 5c-.314 0-.58.219-.65.517l-.014.102-.477 6.667-.001.047c0 .369.298.667.666.667h8.47l.047-.002c.367-.026.644-.345.618-.712l-.477-6.667C12.4 5.27 12.108 5 11.76 5zM8.086 2.334H8c-1.214 0-1.747.367-1.926 1.331h3.852c-.174-.941-.686-1.314-1.84-1.331z" transform="translate(-580 -665) translate(580 650) translate(0 15)"/>
                </g>
            </g>
        </g>
    </g>
</svg>
