<svg xmlns="http://www.w3.org/2000/svg" width="20" height="20" viewBox="0 0 20 20">
    <g fill="none" fill-rule="evenodd">
        <g fill="#FFF">
            <g>
                <g>
                    <path d="M8.536 2.12l-2.06 3.786-4.238.79c-.315.059-.607.208-.84.428l-.065.065c-.605.638-.611 1.645 0 2.291l2.964 3.13-.558 4.274c-.042.318.01.642.148.932l.038.076c.42.776 1.377 1.096 2.183.713L10 16.753l3.892 1.852c.29.138.614.19.932.148l.082-.013c.87-.157 1.47-.97 1.355-1.856l-.558-4.274 2.964-3.13c.22-.233.369-.525.428-.84l.013-.082c.12-.875-.469-1.699-1.346-1.862l-4.238-.79-2.06-3.786c-.154-.282-.385-.513-.667-.667-.809-.44-1.82-.141-2.26.667z" transform="translate(-334 -592) translate(316 578) translate(18 14)"/>
                </g>
            </g>
        </g>
    </g>
</svg>
